# Blender v2.72 (sub 0) OBJ File: 'ALIEN_3.blend'
# www.blender.org
mtllib ALIEN_3.mtl
o Grid
v -1.418590 -0.931673 2.665232
v 0.358231 -0.931673 2.665232
v 2.135052 -0.931673 2.665232
v -3.195411 -0.931673 0.888411
v -1.418590 -0.931673 0.888411
v 0.358231 -0.931673 0.888411
v 2.135052 -0.931673 0.888411
v -3.195411 -0.931673 -0.888411
v -1.418590 -0.931673 -0.888411
v 0.358231 -0.931673 -0.888411
v 2.135052 -0.931673 -0.888411
v -1.418590 -0.931673 -2.665232
v 0.358231 -0.931673 -2.665232
v 2.135052 -0.931673 -2.665232
v -1.418590 -0.931673 3.553642
v -2.307001 -0.931673 2.665232
v 0.358231 -0.931673 3.553642
v 2.135052 -0.931673 3.553642
v 1.246641 -0.931673 2.665232
v 3.023462 -0.931673 2.665232
v -3.195411 -0.931673 1.776821
v -4.083822 -0.931673 0.888411
v -1.418590 -0.931673 1.776821
v 0.358231 -0.931673 1.776821
v -0.530180 -0.931673 0.888411
v 2.135052 -0.931673 1.776821
v 1.246641 -0.931673 0.888411
v 3.023462 -0.931673 0.888411
v -4.083822 -0.931673 -0.888411
v 0.358231 -0.931673 -0.000000
v -0.530180 -0.931673 -0.888411
v 2.135052 -0.931673 -0.000000
v 1.246641 -0.931673 -0.888411
v 3.023462 -0.931673 -0.888411
v -3.195411 -0.931673 -1.776821
v -1.418590 -0.931673 -1.776821
v -2.307001 -0.931673 -2.665232
v 0.358231 -0.931673 -1.776821
v 2.135052 -0.931673 -1.776821
v 1.246641 -0.931673 -2.665232
v 3.023462 -0.931673 -2.665232
v -1.418590 -0.931673 -3.553642
v 0.358231 -0.931673 -3.553642
v 2.135052 -0.931673 -3.553642
v -0.530180 -0.931673 3.553642
v 3.023462 -0.931673 3.553642
v -2.307001 -0.931673 1.776821
v -0.530180 -0.931673 1.776821
v 1.246641 -0.931673 1.776821
v 3.023462 -0.931673 1.776821
v -4.083822 -0.931673 -0.000000
v 1.246641 -0.931673 -0.000000
v -2.307001 -0.931673 -1.776821
v -0.530180 -0.931673 -1.776821
v 1.246641 -0.931673 -1.776821
v 3.023462 -0.931673 -1.776821
v -0.530180 -0.931673 -3.553642
v 3.023462 -0.931673 -3.553642
v -1.418590 0.818743 2.665232
v 0.358231 0.818743 2.665232
v 2.135052 0.818743 2.665232
v -3.195411 0.818743 0.888411
v -1.418590 0.818743 0.888411
v 0.358231 0.818743 0.888411
v 2.135052 0.818743 0.888411
v -3.195411 0.818743 -0.888411
v -1.418590 0.818743 -0.888411
v 0.358231 0.818743 -0.888411
v 2.135052 0.818743 -0.888411
v -1.418590 0.818743 -2.665232
v 0.358231 0.818743 -2.665232
v 2.135052 0.818743 -2.665232
v -1.418590 0.818743 3.553642
v -2.307001 0.818743 2.665232
v 0.358231 0.818743 3.553642
v -0.530180 0.818743 2.665232
v 2.135052 0.818743 3.553642
v 1.246641 0.818743 2.665232
v 3.023462 0.818743 2.665232
v -3.195411 0.818743 1.776821
v -4.083822 0.818743 0.888411
v -1.418590 0.818743 1.776821
v -2.307001 0.818743 0.888411
v 0.358231 0.818743 1.776821
v -0.530180 0.818743 0.888411
v 2.135052 0.818743 1.776821
v 1.246641 0.818743 0.888411
v 3.023462 0.818743 0.888411
v -3.195411 0.818743 -0.000000
v -4.083822 0.818743 -0.888411
v -1.418590 0.818743 -0.000000
v -2.307001 0.818743 -0.888411
v 0.358231 0.818743 -0.000000
v -0.530180 0.818743 -0.888411
v 2.135052 0.818743 -0.000000
v 1.246641 0.818743 -0.888411
v 3.023462 0.818743 -0.888411
v -3.195411 0.818743 -1.776821
v -1.418590 0.818743 -1.776821
v -2.307001 0.818743 -2.665232
v 0.358231 0.818743 -1.776821
v -0.530180 0.818743 -2.665232
v 2.135052 0.818743 -1.776821
v 1.246641 0.818743 -2.665232
v 3.023462 0.818743 -2.665232
v -1.418590 0.818743 -3.553642
v 0.358231 0.818743 -3.553642
v 2.135052 0.818743 -3.553642
v -0.530180 0.818743 3.553642
v 3.023462 0.818743 3.553642
v -2.307001 0.818743 1.776821
v -0.530180 0.818743 1.776821
v 1.246641 0.818743 1.776821
v 3.023462 0.818743 1.776821
v -4.083822 0.818743 -0.000000
v -2.307001 0.818743 -0.000000
v -0.530180 0.818743 -0.000000
v 1.246641 0.818743 -0.000000
v -2.307001 0.818743 -1.776821
v -0.530180 0.818743 -1.776821
v 1.246641 0.818743 -1.776821
v 3.023462 0.818743 -1.776821
v -0.530180 0.818743 -3.553642
v 3.023462 0.818743 -3.553642
vn 0.000000 0.000000 1.000000
vn -1.000000 0.000000 0.000000
vn 0.000000 0.000000 -1.000000
vn 1.000000 0.000000 0.000000
vn 0.000000 1.000000 0.000000
vn 0.000000 -1.000000 0.000000
g Grid_Grid_ALIEN_3
usemtl ALIEN_3
s off
f 7//1 65//1 87//1
f 53//2 119//2 100//2
f 9//3 67//3 94//3
f 18//2 77//2 61//2
f 7//3 65//3 88//3
f 1//1 59//1 74//1
f 28//4 88//4 114//4
f 39//3 103//3 122//3
f 26//4 86//4 61//4
f 10//4 68//4 93//4
f 48//2 112//2 85//2
f 54//1 120//1 99//1
f 57//3 123//3 107//3
f 29//3 90//3 66//3
f 49//3 113//3 86//3
f 56//4 122//4 97//4
f 44//3 108//3 124//3
f 22//2 81//2 115//2
f 21//2 80//2 62//2
f 2//4 60//4 75//4
f 14//4 72//4 103//4
f 6//3 64//3 87//3
f 31//2 94//2 120//2
f 42//3 106//3 123//3
f 49//1 113//1 84//1
f 58//4 124//4 105//4
f 51//2 115//2 90//2
f 37//3 100//3 70//3
f 24//4 84//4 60//4
f 14//2 72//2 108//2
f 33//3 96//3 69//3
f 47//1 111//1 80//1
f 26//2 86//2 65//2
f 34//1 97//1 69//1
f 19//2 78//2 113//2
f 39//1 103//1 121//1
f 75//5 60//5 76//5
f 82//5 63//5 83//5
f 84//5 64//5 85//5
f 89//5 66//5 90//5
f 91//5 67//5 92//5
f 93//5 68//5 94//5
f 95//5 69//5 96//5
f 99//5 70//5 100//5
f 101//5 71//5 102//5
f 103//5 72//5 104//5
f 109//5 76//5 59//5
f 110//5 79//5 61//5
f 111//5 83//5 62//5
f 59//5 82//5 111//5
f 76//5 112//5 82//5
f 60//5 84//5 112//5
f 113//5 87//5 64//5
f 61//5 86//5 113//5
f 114//5 88//5 65//5
f 62//5 89//5 115//5
f 116//5 92//5 66//5
f 83//5 116//5 89//5
f 63//5 91//5 116//5
f 117//5 94//5 67//5
f 85//5 117//5 91//5
f 64//5 93//5 117//5
f 65//5 95//5 118//5
f 92//5 119//5 98//5
f 67//5 99//5 119//5
f 120//5 102//5 70//5
f 68//5 101//5 120//5
f 96//5 121//5 101//5
f 97//5 122//5 103//5
f 102//5 123//5 106//5
f 71//5 107//5 123//5
f 105//5 124//5 108//5
f 11//2 69//2 103//2
f 5//4 63//4 82//4
f 20//4 79//4 110//4
f 12//2 70//2 106//2
f 55//2 121//2 104//2
f 41//1 105//1 72//1
f 23//3 82//3 112//3
f 11//4 69//4 95//4
f 40//3 104//3 72//3
f 50//1 114//1 86//1
f 30//4 93//4 64//4
f 8//2 66//2 98//2
f 4//1 62//1 81//1
f 55//4 121//4 96//4
f 52//2 118//2 96//2
f 45//1 109//1 73//1
f 33//1 96//1 68//1
f 35//3 98//3 119//3
f 43//4 107//4 71//4
f 46//1 110//1 77//1
f 38//3 101//3 121//3
f 27//2 87//2 118//2
f 17//1 75//1 109//1
f 27//4 87//4 113//4
f 3//3 61//3 79//3
f 16//2 74//2 111//2
f 25//1 85//1 63//1
f 13//4 71//4 101//4
f 15//2 73//2 59//2
f 3//1 61//1 78//1
f 32//4 95//4 65//4
f 36//4 99//4 67//4
f 8//6 4//6 51//6
f 29//6 8//6 51//6
f 4//6 22//6 51//6
f 8//6 53//6 9//6
f 35//6 53//6 8//6
f 9//6 53//6 36//6
f 4//6 5//6 47//6
f 21//6 4//6 47//6
f 5//6 23//6 47//6
f 8//6 9//6 5//6
f 9//6 31//6 25//6
f 31//6 30//6 25//6
f 30//6 31//6 10//6
f 30//6 6//6 25//6
f 12//6 36//6 53//6
f 13//6 54//6 12//6
f 36//6 12//6 54//6
f 42//6 57//6 12//6
f 13//6 57//6 43//6
f 13//6 38//6 54//6
f 47//6 23//6 1//6
f 48//6 2//6 45//6
f 23//6 48//6 1//6
f 15//6 1//6 45//6
f 2//6 17//6 45//6
f 24//6 2//6 48//6
f 38//6 10//6 31//6
f 38//6 55//6 33//6
f 25//6 6//6 24//6
f 32//6 52//6 33//6
f 52//6 32//6 7//6
f 39//6 55//6 40//6
f 44//6 58//6 41//6
f 39//6 56//6 34//6
f 27//6 49//6 24//6
f 49//6 26//6 3//6
f 28//6 50//6 26//6
f 20//6 46//6 18//6
f 27//1 7//1 87//1
f 37//2 53//2 100//2
f 31//3 9//3 94//3
f 3//2 18//2 61//2
f 28//3 7//3 88//3
f 16//1 1//1 74//1
f 50//4 28//4 114//4
f 56//3 39//3 122//3
f 3//4 26//4 61//4
f 30//4 10//4 93//4
f 25//2 48//2 85//2
f 36//1 54//1 99//1
f 43//3 57//3 107//3
f 8//3 29//3 66//3
f 26//3 49//3 86//3
f 34//4 56//4 97//4
f 58//3 44//3 124//3
f 51//2 22//2 115//2
f 4//2 21//2 62//2
f 17//4 2//4 75//4
f 39//4 14//4 103//4
f 27//3 6//3 87//3
f 54//2 31//2 120//2
f 57//3 42//3 123//3
f 24//1 49//1 84//1
f 41//4 58//4 105//4
f 29//2 51//2 90//2
f 12//3 37//3 70//3
f 2//4 24//4 60//4
f 44//2 14//2 108//2
f 11//3 33//3 69//3
f 21//1 47//1 80//1
f 7//2 26//2 65//2
f 11//1 34//1 69//1
f 49//2 19//2 113//2
f 55//1 39//1 121//1
f 109//5 75//5 76//5
f 111//5 82//5 83//5
f 112//5 84//5 85//5
f 115//5 89//5 90//5
f 116//5 91//5 92//5
f 117//5 93//5 94//5
f 118//5 95//5 96//5
f 119//5 99//5 100//5
f 120//5 101//5 102//5
f 121//5 103//5 104//5
f 73//5 109//5 59//5
f 77//5 110//5 61//5
f 80//5 111//5 62//5
f 74//5 59//5 111//5
f 59//5 76//5 82//5
f 76//5 60//5 112//5
f 84//5 113//5 64//5
f 78//5 61//5 113//5
f 86//5 114//5 65//5
f 81//5 62//5 115//5
f 89//5 116//5 66//5
f 62//5 83//5 89//5
f 83//5 63//5 116//5
f 91//5 117//5 67//5
f 63//5 85//5 91//5
f 85//5 64//5 117//5
f 87//5 65//5 118//5
f 66//5 92//5 98//5
f 92//5 67//5 119//5
f 99//5 120//5 70//5
f 94//5 68//5 120//5
f 68//5 96//5 101//5
f 69//5 97//5 103//5
f 70//5 102//5 106//5
f 102//5 71//5 123//5
f 72//5 105//5 108//5
f 39//2 11//2 103//2
f 23//4 5//4 82//4
f 46//4 20//4 110//4
f 42//2 12//2 106//2
f 40//2 55//2 104//2
f 14//1 41//1 72//1
f 48//3 23//3 112//3
f 32//4 11//4 95//4
f 14//3 40//3 72//3
f 26//1 50//1 86//1
f 6//4 30//4 64//4
f 35//2 8//2 98//2
f 22//1 4//1 81//1
f 33//4 55//4 96//4
f 33//2 52//2 96//2
f 15//1 45//1 73//1
f 10//1 33//1 68//1
f 53//3 35//3 119//3
f 13//4 43//4 71//4
f 18//1 46//1 77//1
f 55//3 38//3 121//3
f 52//2 27//2 118//2
f 45//1 17//1 109//1
f 49//4 27//4 113//4
f 20//3 3//3 79//3
f 47//2 16//2 111//2
f 5//1 25//1 63//1
f 38//4 13//4 101//4
f 1//2 15//2 59//2
f 19//1 3//1 78//1
f 7//4 32//4 65//4
f 9//4 36//4 67//4
f 4//6 8//6 5//6
f 5//6 9//6 25//6
f 37//6 12//6 53//6
f 57//6 13//6 12//6
f 16//6 47//6 1//6
f 1//6 48//6 45//6
f 54//6 38//6 31//6
f 10//6 38//6 33//6
f 48//6 25//6 24//6
f 11//6 32//6 33//6
f 27//6 52//6 7//6
f 14//6 39//6 40//6
f 14//6 44//6 41//6
f 11//6 39//6 34//6
f 6//6 27//6 24//6
f 19//6 49//6 3//6
f 7//6 28//6 26//6
f 3//6 20//6 18//6
