# Blender v2.72 (sub 0) OBJ File: 'BARRIER.blend'
# www.blender.org
mtllib BARRIER.mtl
o Grid
v 0.075533 -0.151100 0.482581
v -0.347453 -0.151100 0.000000
v 0.075533 -0.151100 -0.482581
v -0.135960 -0.151100 0.482581
v 0.287026 -0.151100 0.482581
v -0.347453 -0.151100 0.331700
v 0.214515 -0.151100 0.000000
v -0.347453 -0.151100 -0.331700
v -0.135960 -0.151100 -0.482581
v 0.287026 -0.151100 -0.482581
v -0.135960 -0.151100 0.399586
v 0.214515 -0.151100 0.241291
v -0.135960 -0.151100 -0.399587
v 0.214515 -0.151100 -0.241291
v 0.075533 0.151100 0.482581
v -0.347453 0.151100 0.000000
v 0.075533 0.151100 -0.482581
v -0.135960 0.151100 0.482581
v 0.287026 0.151100 0.482581
v -0.347453 0.151100 0.331700
v 0.214515 0.151100 0.000000
v -0.347453 0.151100 -0.331700
v -0.135960 0.151100 -0.482581
v 0.287026 0.151100 -0.482581
v -0.135960 0.151100 0.399586
v 0.214515 0.151100 0.241291
v -0.135960 0.151100 -0.399587
v 0.214515 0.151100 -0.241291
vn -1.000000 0.000000 0.000000
vn 0.000000 0.000000 -1.000000
vn 0.000000 -1.000000 0.000000
vn 0.000000 1.000000 0.000000
vn 1.000000 0.000000 0.000000
vn 0.957700 0.000000 -0.287800
vn 0.957700 0.000000 0.287800
vn 0.000000 0.000000 1.000000
vn -0.580800 0.000000 -0.814100
vn -0.580800 0.000000 0.814100
usemtl BARRIER.001
s off
f 2//1 16//1 22//1
f 3//2 9//2 23//2
f 9//3 13//3 8//3
f 23//4 22//4 27//4
f 7//5 21//5 26//5
f 12//6 26//6 19//6
f 6//3 11//3 4//3
f 20//4 18//4 25//4
f 10//7 24//7 28//7
f 14//5 28//5 21//5
f 3//3 14//3 2//3
f 2//3 12//3 1//3
f 7//3 12//3 2//3
f 14//3 7//3 2//3
f 10//3 14//3 3//3
f 9//3 3//3 13//3
f 8//3 13//3 2//3
f 6//3 2//3 11//3
f 4//3 11//3 1//3
f 1//3 12//3 5//3
f 22//4 16//4 27//4
f 23//4 27//4 17//4
f 24//4 17//4 28//4
f 15//4 19//4 26//4
f 18//4 15//4 25//4
f 20//4 25//4 16//4
f 4//8 1//8 15//8
f 10//2 3//2 17//2
f 6//1 20//1 16//1
f 1//8 5//8 19//8
f 26//4 21//4 16//4
f 28//4 16//4 21//4
f 28//4 17//4 16//4
f 26//4 16//4 15//4
f 25//4 15//4 16//4
f 16//4 17//4 27//4
f 1//3 11//3 2//3
f 3//3 2//3 13//3
f 9//9 8//9 22//9
f 18//10 20//10 6//10
f 8//1 2//1 22//1
f 17//2 3//2 23//2
f 12//5 7//5 26//5
f 5//6 12//6 19//6
f 14//7 10//7 28//7
f 7//5 14//5 21//5
f 18//8 4//8 15//8
f 24//2 10//2 17//2
f 2//1 6//1 16//1
f 15//8 1//8 19//8
f 23//9 9//9 22//9
f 4//10 18//10 6//10
