# Blender v2.72 (sub 0) OBJ File: 'PLAYER_SHIP.blend'
# www.blender.org
mtllib PLAYER_SHIP.mtl
o Grid
v -0.436981 -1.383279 5.778708
v 1.341083 -1.383279 5.778708
v -3.993109 -1.383279 0.444516
v -2.215045 -1.383279 -1.333548
v -0.436981 -1.383279 -4.889676
v 0.452051 -1.383279 5.778708
v 2.230115 -1.383279 5.778708
v -0.436981 -1.383279 4.889676
v -1.326013 -1.383279 4.000644
v 2.230115 -1.383279 4.000644
v -1.326013 -1.383279 2.222580
v 2.230115 -1.383279 2.222580
v -2.215045 -1.383279 1.333548
v -3.104077 -1.383279 0.444516
v 2.230115 -1.383279 0.444516
v -3.993109 -1.383279 -0.444516
v -3.104077 -1.383279 -1.333548
v -1.326013 -1.383279 -1.333548
v 2.230115 -1.383279 -1.333548
v -1.326013 -1.383279 -3.111612
v 2.230115 -1.383279 -3.111612
v -1.326013 -1.383279 -4.889676
v 2.230115 -1.383279 -4.889676
v -0.436981 -1.383279 -5.778708
v 1.341083 -1.383279 -5.778708
v -1.326013 -1.383279 4.889676
v 2.230115 -1.383279 4.889676
v -1.326013 -1.383279 3.111612
v 2.230115 -1.383279 3.111612
v -3.104077 -1.383279 1.333548
v -1.326013 -1.383279 1.333548
v 2.230115 -1.383279 1.333548
v -3.104077 -1.383279 -0.444516
v 2.230115 -1.383279 -0.444516
v -1.326013 -1.383279 -2.222580
v 2.230115 -1.383279 -2.222580
v -1.326013 -1.383279 -4.000644
v 2.230115 -1.383279 -4.000644
v 0.452051 -1.383279 -5.778708
v 2.230115 -1.383279 -5.778708
v -0.436981 0.709375 5.778708
v 1.341083 0.709375 5.778708
v -0.436981 0.709375 4.000644
v 1.341083 0.709375 4.000644
v -0.436981 0.709375 2.222580
v 1.341083 0.709375 2.222580
v -3.993109 0.709375 0.444516
v -2.215045 0.709375 0.444516
v -0.436981 0.709375 0.444516
v 1.341083 0.709375 0.444516
v -2.215045 0.709375 -1.333548
v -0.436981 0.709375 -1.333548
v 1.341083 0.709375 -1.333548
v -0.436981 0.709375 -3.111612
v 1.341083 0.709375 -3.111612
v -0.436981 0.709375 -4.889676
v 1.341083 0.709375 -4.889676
v 0.452051 0.709375 5.778708
v 2.230115 0.709375 5.778708
v -0.436981 0.709375 4.889676
v -1.326013 0.709375 4.000644
v 1.341083 0.709375 4.889676
v 0.452051 0.709375 4.000644
v 2.230115 0.709375 4.000644
v -0.436981 0.709375 3.111612
v -1.326013 0.709375 2.222580
v 1.341083 0.709375 3.111612
v 0.452051 0.709375 2.222580
v 2.230115 0.709375 2.222580
v -2.215045 0.709375 1.333548
v -3.104077 0.709375 0.444516
v -0.436981 0.709375 1.333548
v -1.326013 0.709375 0.444516
v 1.341083 0.709375 1.333548
v 0.452051 0.709375 0.444516
v 2.230115 0.709375 0.444516
v -3.993109 0.709375 -0.444516
v -2.215045 0.709375 -0.444516
v -3.104077 0.709375 -1.333548
v -0.436981 0.709375 -0.444516
v -1.326013 0.709375 -1.333548
v 1.341083 0.709375 -0.444516
v 0.452051 0.709375 -1.333548
v 2.230115 0.709375 -1.333548
v -0.436981 0.709375 -2.222580
v -1.326013 0.709375 -3.111612
v 1.341083 0.709375 -2.222580
v 0.452051 0.709375 -3.111612
v 2.230115 0.709375 -3.111612
v -0.436981 0.709375 -4.000644
v -1.326013 0.709375 -4.889676
v 1.341083 0.709375 -4.000644
v 0.452051 0.709375 -4.889676
v 2.230115 0.709375 -4.889676
v -0.436981 0.709375 -5.778708
v 1.341083 0.709375 -5.778708
v -1.326013 0.709375 4.889676
v 0.452051 0.709375 4.889676
v 2.230115 0.709375 4.889676
v -1.326013 0.709375 3.111612
v 0.452051 0.709375 3.111612
v 2.230115 0.709375 3.111612
v -3.104077 0.709375 1.333548
v -1.326013 0.709375 1.333548
v 0.452051 0.709375 1.333548
v 2.230115 0.709375 1.333548
v -3.104077 0.709375 -0.444516
v -1.326013 0.709375 -0.444516
v 0.452051 0.709375 -0.444516
v 2.230115 0.709375 -0.444516
v -1.326013 0.709375 -2.222580
v 0.452051 0.709375 -2.222580
v 2.230115 0.709375 -2.222580
v -1.326013 0.709375 -4.000644
v 0.452051 0.709375 -4.000644
v 2.230115 0.709375 -4.000644
v 0.452051 0.709375 -5.778708
v 2.230115 0.709375 -5.778708
vn 1.000000 0.000000 0.000000
vn -1.000000 0.000000 0.000000
vn 0.000000 0.000000 -1.000000
vn 0.000000 0.000000 1.000000
vn 0.000000 -1.000000 0.000000
vn 0.000000 1.000000 0.000000
g Grid_Grid_PLAYER_SHIP
usemtl PLAYER_SHIP
s off
f 19//1 84//1 110//1
f 3//2 47//2 77//2
f 30//2 103//2 71//2
f 26//2 97//2 61//2
f 5//2 56//2 95//2
f 36//1 113//1 84//1
f 37//2 114//2 91//2
f 12//1 69//1 102//1
f 17//3 79//3 51//3
f 9//2 61//2 100//2
f 13//4 70//4 103//4
f 8//4 60//4 97//4
f 32//1 106//1 69//1
f 31//4 104//4 70//4
f 21//1 89//1 113//1
f 22//3 91//3 56//3
f 18//2 81//2 111//2
f 27//1 99//1 59//1
f 4//3 51//3 81//3
f 33//2 107//2 79//2
f 28//2 100//2 66//2
f 38//1 116//1 89//1
f 39//3 117//3 96//3
f 6//4 58//4 41//4
f 15//1 76//1 106//1
f 2//4 42//4 58//4
f 11//2 66//2 104//2
f 1//2 41//2 60//2
f 25//3 96//3 118//3
f 34//1 110//1 76//1
f 7//4 59//4 42//4
f 14//4 71//4 47//4
f 35//2 111//2 86//2
f 10//1 64//1 99//1
f 23//1 94//1 116//1
f 24//3 95//3 117//3
f 20//2 86//2 114//2
f 29//1 102//1 64//1
f 16//3 77//3 107//3
f 40//1 118//1 94//1
f 32//5 12//5 11//5
f 12//5 29//5 28//5
f 29//5 10//5 9//5
f 27//5 8//5 9//5
f 15//5 32//5 31//5
f 19//5 34//5 18//5
f 15//5 31//5 18//5
f 18//5 31//5 13//5
f 13//5 14//5 33//5
f 16//5 33//5 14//5
f 30//5 14//5 13//5
f 17//5 4//5 33//5
f 36//5 19//5 18//5
f 21//5 36//5 35//5
f 38//5 21//5 20//5
f 37//5 5//5 23//5
f 26//5 9//5 8//5
f 22//5 5//5 37//5
f 25//5 23//5 5//5
f 6//5 8//5 27//5
f 2//5 27//5 7//5
f 1//5 8//5 6//5
f 40//5 23//5 25//5
f 24//5 39//5 5//5
f 60//6 43//6 61//6
f 62//6 44//6 63//6
f 65//6 45//6 66//6
f 67//6 46//6 68//6
f 70//6 48//6 71//6
f 72//6 49//6 73//6
f 74//6 50//6 75//6
f 78//6 51//6 79//6
f 80//6 52//6 81//6
f 82//6 53//6 83//6
f 85//6 54//6 86//6
f 87//6 55//6 88//6
f 90//6 56//6 91//6
f 92//6 57//6 93//6
f 98//6 63//6 43//6
f 58//6 98//6 60//6
f 42//6 62//6 98//6
f 99//6 64//6 44//6
f 59//6 99//6 62//6
f 43//6 65//6 100//6
f 101//6 68//6 45//6
f 63//6 101//6 65//6
f 44//6 67//6 101//6
f 102//6 69//6 46//6
f 64//6 102//6 67//6
f 104//6 73//6 48//6
f 45//6 72//6 104//6
f 105//6 75//6 49//6
f 68//6 105//6 72//6
f 46//6 74//6 105//6
f 106//6 76//6 50//6
f 69//6 106//6 74//6
f 71//6 107//6 77//6
f 48//6 78//6 107//6
f 108//6 81//6 51//6
f 73//6 108//6 78//6
f 49//6 80//6 108//6
f 109//6 83//6 52//6
f 75//6 109//6 80//6
f 50//6 82//6 109//6
f 110//6 84//6 53//6
f 76//6 110//6 82//6
f 52//6 85//6 111//6
f 112//6 88//6 54//6
f 83//6 112//6 85//6
f 53//6 87//6 112//6
f 113//6 89//6 55//6
f 84//6 113//6 87//6
f 54//6 90//6 114//6
f 115//6 93//6 56//6
f 88//6 115//6 90//6
f 55//6 92//6 115//6
f 116//6 94//6 57//6
f 89//6 116//6 92//6
f 93//6 117//6 95//6
f 57//6 96//6 117//6
f 94//6 118//6 96//6
f 34//1 19//1 110//1
f 16//2 3//2 77//2
f 14//2 30//2 71//2
f 9//2 26//2 61//2
f 24//2 5//2 95//2
f 19//1 36//1 84//1
f 22//2 37//2 91//2
f 29//1 12//1 102//1
f 4//3 17//3 51//3
f 28//2 9//2 100//2
f 30//4 13//4 103//4
f 26//4 8//4 97//4
f 12//1 32//1 69//1
f 13//4 31//4 70//4
f 36//1 21//1 113//1
f 5//3 22//3 56//3
f 35//2 18//2 111//2
f 7//1 27//1 59//1
f 18//3 4//3 81//3
f 17//2 33//2 79//2
f 11//2 28//2 66//2
f 21//1 38//1 89//1
f 25//3 39//3 96//3
f 1//4 6//4 41//4
f 32//1 15//1 106//1
f 6//4 2//4 58//4
f 31//2 11//2 104//2
f 8//2 1//2 60//2
f 40//3 25//3 118//3
f 15//1 34//1 76//1
f 2//4 7//4 42//4
f 3//4 14//4 47//4
f 20//2 35//2 86//2
f 27//1 10//1 99//1
f 38//1 23//1 116//1
f 39//3 24//3 117//3
f 37//2 20//2 114//2
f 10//1 29//1 64//1
f 33//3 16//3 107//3
f 23//1 40//1 94//1
f 31//5 32//5 11//5
f 11//5 12//5 28//5
f 28//5 29//5 9//5
f 10//5 27//5 9//5
f 34//5 15//5 18//5
f 4//5 18//5 13//5
f 4//5 13//5 33//5
f 3//5 16//5 14//5
f 35//5 36//5 18//5
f 20//5 21//5 35//5
f 37//5 38//5 20//5
f 38//5 37//5 23//5
f 39//5 25//5 5//5
f 2//5 6//5 27//5
f 97//6 60//6 61//6
f 98//6 62//6 63//6
f 100//6 65//6 66//6
f 101//6 67//6 68//6
f 103//6 70//6 71//6
f 104//6 72//6 73//6
f 105//6 74//6 75//6
f 107//6 78//6 79//6
f 108//6 80//6 81//6
f 109//6 82//6 83//6
f 111//6 85//6 86//6
f 112//6 87//6 88//6
f 114//6 90//6 91//6
f 115//6 92//6 93//6
f 60//6 98//6 43//6
f 41//6 58//6 60//6
f 58//6 42//6 98//6
f 62//6 99//6 44//6
f 42//6 59//6 62//6
f 61//6 43//6 100//6
f 65//6 101//6 45//6
f 43//6 63//6 65//6
f 63//6 44//6 101//6
f 67//6 102//6 46//6
f 44//6 64//6 67//6
f 70//6 104//6 48//6
f 66//6 45//6 104//6
f 72//6 105//6 49//6
f 45//6 68//6 72//6
f 68//6 46//6 105//6
f 74//6 106//6 50//6
f 46//6 69//6 74//6
f 47//6 71//6 77//6
f 71//6 48//6 107//6
f 78//6 108//6 51//6
f 48//6 73//6 78//6
f 73//6 49//6 108//6
f 80//6 109//6 52//6
f 49//6 75//6 80//6
f 75//6 50//6 109//6
f 82//6 110//6 53//6
f 50//6 76//6 82//6
f 81//6 52//6 111//6
f 85//6 112//6 54//6
f 52//6 83//6 85//6
f 83//6 53//6 112//6
f 87//6 113//6 55//6
f 53//6 84//6 87//6
f 86//6 54//6 114//6
f 90//6 115//6 56//6
f 54//6 88//6 90//6
f 88//6 55//6 115//6
f 92//6 116//6 57//6
f 55//6 89//6 92//6
f 56//6 93//6 95//6
f 93//6 57//6 117//6
f 57//6 94//6 96//6
